<svg width="48" height="48" viewBox="0 0 48 48" fill="none" xmlns="http://www.w3.org/2000/svg">
<path d="M30.273 16.3037C28.5281 14.6191 26.3087 13.7614 23.8367 13.7614C19.4515 13.7614 15.7398 16.7518 14.4158 20.77C14.0791 21.79 13.8878 22.8796 13.8878 24.0001C13.8878 25.1205 14.0791 26.21 14.4158 27.23C15.7398 31.2482 19.4515 34.2386 23.8367 34.2386C26.1021 34.2386 28.0306 33.6359 29.5383 32.6159C31.3214 31.4104 32.5077 29.61 32.898 27.4851H23.8367V20.9091H39.6939C39.8929 22.0219 40 23.181 40 24.3864C40 29.5637 38.1633 33.9219 34.9796 36.8814C32.1939 39.4778 28.3826 41 23.8367 41C17.2551 41 11.5613 37.1905 8.79085 31.6346C7.65054 29.3396 7 26.7432 7 24.0001C7 21.2569 7.65051 18.6605 8.79082 16.3655C11.5612 10.8096 17.2551 7 23.8367 7C28.375 7 32.1862 8.68455 35.1021 11.4277L30.273 16.3037Z" fill="black"/>
</svg>
