<svg width="24" height="24" viewBox="0 0 24 24" fill="none" xmlns="http://www.w3.org/2000/svg">
<path fill-rule="evenodd" clip-rule="evenodd" d="M4.70666 3.50003C4.04024 3.50003 3.5 4.04027 3.5 4.70669V19.2933C3.5 19.9597 4.04024 20.5 4.70667 20.5H19.2933C19.9598 20.5 20.5 19.9597 20.5 19.2933V4.7067C20.5 4.04027 19.9598 3.50003 19.2933 3.50003H4.70666ZM7.31572 8.77939C8.1302 8.77939 8.79047 8.11912 8.79047 7.30464C8.79047 6.49016 8.1302 5.8299 7.31572 5.8299C6.50124 5.8299 5.84097 6.49016 5.84097 7.30464C5.84097 8.11912 6.50124 8.77939 7.31572 8.77939ZM10.1411 9.86927H12.5852V10.9889C12.5852 10.9889 13.2485 9.66244 15.0531 9.66244C16.6628 9.66244 17.9964 10.4555 17.9964 12.8726V17.9698H15.4636V13.4903C15.4636 12.0644 14.7023 11.9075 14.1222 11.9075C12.9183 11.9075 12.7122 12.946 12.7122 13.6763V17.9698H10.1411V9.86927ZM8.6013 9.86928H6.03015V17.9698H8.6013V9.86928Z" fill="#000000"/>
</svg>
