<svg class="--outline" width="48" height="48" viewBox="0 0 48 48" fill="none" xmlns="http://www.w3.org/2000/svg">
<path d="M22.9396 13.3931L26.6519 9.6808C27.4179 8.91414 28.3274 8.30589 29.3285 7.89082C30.3296 7.47574 31.4026 7.26197 32.4864 7.26172C33.5701 7.26147 34.6433 7.47474 35.6445 7.88935C36.6458 8.30395 37.5556 8.91178 38.3219 9.67809C39.0882 10.4444 39.696 11.3542 40.1107 12.3555C40.5253 13.3568 40.7385 14.4299 40.7383 15.5136C40.738 16.5974 40.5243 17.6704 40.1092 18.6715C39.6941 19.6726 39.0859 20.5821 38.3192 21.3481L33.0159 26.6514C32.2498 27.4175 31.3403 28.0251 30.3394 28.4397C29.3385 28.8543 28.2657 29.0677 27.1823 29.0677C26.0989 29.0677 25.0261 28.8543 24.0251 28.4397C23.0242 28.0251 22.1147 27.4175 21.3486 26.6514"  stroke-width="4" stroke-linecap="round" stroke-linejoin="round" stroke="#000"/>
<path d="M25.0606 34.6063L21.3483 38.3186C20.5824 39.0852 19.6729 39.6935 18.6718 40.1086C17.6707 40.5236 16.5976 40.7374 15.5139 40.7377C14.4302 40.7379 13.357 40.5246 12.3557 40.11C11.3544 39.6954 10.4446 39.0876 9.67833 38.3213C8.91202 37.555 8.3042 36.6452 7.88959 35.6439C7.47498 34.6426 7.26171 33.5695 7.26196 32.4857C7.26222 31.402 7.47599 30.3289 7.89106 29.3279C8.30613 28.3268 8.91438 27.4173 9.68105 26.6513L14.9843 21.348C15.7504 20.5819 16.6599 19.9742 17.6608 19.5596C18.6618 19.145 19.7346 18.9316 20.818 18.9316C21.9014 18.9316 22.9742 19.145 23.9751 19.5596C24.9761 19.9742 25.8855 20.5819 26.6516 21.348"  stroke-width="4" stroke-linecap="round" stroke-linejoin="round" stroke="#000"/>
</svg>
