<svg width="24" height="24" viewBox="0 0 24 24" fill="none" xmlns="http://www.w3.org/2000/svg">
<path fill-rule="evenodd" clip-rule="evenodd" d="M19.7716 8.08878C19.7784 8.26367 19.7807 8.43849 19.7807 8.61337C19.7807 13.9156 16.0508 20.0366 9.23024 20.0366C7.13507 20.0366 5.18687 19.3689 3.54541 18.2321C3.83557 18.2639 4.13025 18.2878 4.42945 18.2878C6.16663 18.2878 7.76664 17.6438 9.0358 16.5627C7.41318 16.5388 6.04304 15.3703 5.57049 13.7804C5.79734 13.8281 6.03096 13.852 6.26987 13.852C6.60675 13.852 6.93384 13.8044 7.24736 13.709C5.54937 13.3433 4.27043 11.7217 4.27043 9.77414C4.27043 9.75029 4.27043 9.74229 4.27043 9.72639C4.77086 10.0205 5.34363 10.2033 5.95183 10.2271C4.9555 9.50372 4.30056 8.2716 4.30056 6.88047C4.30056 6.14913 4.48295 5.45751 4.804 4.86131C6.63237 7.29381 9.3659 8.89164 12.4476 9.05858C12.3843 8.76445 12.3519 8.45451 12.3519 8.14448C12.3519 5.92662 14.0122 4.13004 16.0606 4.13004C17.127 4.13004 18.0902 4.61501 18.7662 5.39405C19.6126 5.21916 20.4054 4.88531 21.1229 4.42425C20.8448 5.36227 20.2577 6.14909 19.4905 6.64195C20.2411 6.54656 20.9571 6.33209 21.6211 6.01412C21.1229 6.817 20.4959 7.52438 19.7716 8.08878Z" fill="#000000"/>
</svg>
