<svg width="24" height="25" viewBox="0 0 24 25" fill="none" xmlns="http://www.w3.org/2000/svg">
<g id="Vimeo">
<path id="Vector" d="M5.18583 6.26239L2.67969 8.53405L3.54684 9.62592C3.93301 9.38586 4.70534 8.75964 5.04977 8.75964C5.8221 8.75964 6.51641 10.8523 7.17892 13.1536C7.77382 15.2202 8.38961 20.3552 11.2285 20.3552C14.4953 20.3552 21.3628 11.5359 21.3628 7.61072C21.3628 6.19043 21.081 4.14648 18.2526 4.14648C15.2217 4.14648 13.7305 7.07153 13.3638 8.53405C13.6276 8.35817 14.3457 8.24092 14.7415 8.24092C16.3536 8.24092 16.0093 9.91195 15.7894 10.5861C15.5696 11.2603 13.8795 14.5429 12.9681 14.5429C11.8543 14.5429 11.1947 9.7065 10.8723 7.61072C10.5499 5.51493 9.7145 4.37178 8.43944 4.37178C7.41939 4.37178 5.84535 5.63218 5.18583 6.26239Z" fill="#000000"/>
</g>
</svg>
