<svg width="278" height="40" viewBox="0 0 278 40" fill="none" xmlns="http://www.w3.org/2000/svg">
<g clip-path="url(#clip0_17_4127)">
<path d="M39.92 12.17C31.98 12.17 26.97 17.34 26.97 25.9C26.97 34.46 31.98 39.63 39.92 39.63C47.86 39.63 52.92 34.41 52.92 25.9C52.92 17.39 47.91 12.17 39.92 12.17ZM39.97 35.77C35.38 35.77 32.14 31.85 32.14 25.85C32.14 19.85 35.38 15.88 39.97 15.88C44.56 15.88 47.8 19.69 47.8 25.85C47.8 32.01 44.61 35.77 39.97 35.77Z" fill="#F15A5D"/>
<path d="M70.77 12.22C66.85 12.22 64.15 13.46 62.05 16.5V0H57.19V32.09C57.19 32.09 59.37 39.65 68.7 39.65C75.91 39.65 81.52 33.94 81.52 25.48C81.52 17.02 77.08 12.22 70.76 12.22H70.77ZM69.41 35.51C64.6 35.51 62.15 31.42 62.15 28.84C62.15 27.98 62.1 24.08 62.21 23.32C62.9 18.6 65.65 15.92 69.56 15.92C73.47 15.92 76.4 19.58 76.4 25.89C76.4 32.2 73.58 35.5 69.4 35.5L69.41 35.51Z" fill="#F15A5D"/>
<path d="M119.7 25.07C119.7 16.98 115.47 12.17 108.68 12.17C101.47 12.17 96.46 17.5 96.46 25.64C96.46 34.36 101.42 39.64 109.31 39.64C112.39 39.64 115.16 39.22 117.61 38.18V34C115.21 35.25 112.86 35.93 110.35 35.93C104.87 35.93 101.53 32.64 101.16 27.05H119.7V25.07ZM101.27 23.82C101.79 18.65 104.61 15.67 108.42 15.67C112.23 15.67 114.79 18.54 115.16 23.82H101.27Z" fill="#F15A5D"/>
<path d="M12.55 12.21C12.29 12.13 12.01 12.09 11.71 12.09C4.08 12.09 0.1 14.03 0.1 14.03L0.02 24.31H0V39H4.86V27.42H4.88V24.77C4.88 24.61 4.89 24.46 4.9 24.3H4.88V17.66C5.11 17.7 7.38 16.2 11.63 16.2C15.46 16.35 17.7 19.08 17.7 24.26V38.99H22.56V23.17C22.56 16.36 17.95 12.63 12.55 12.2V12.21Z" fill="#F15A5D"/>
<path d="M90.68 28.11C90.68 27.73 90.62 0 90.62 0H85.71L85.76 29.25C85.95 32.71 87.11 34.75 87.92 36.01C89 37.67 90.68 39.43 90.74 39.5L94.17 36.06C94.17 36.06 92.78 34.59 91.99 33.37C91.42 32.49 90.67 31 90.67 28.11H90.68Z" fill="#F15A5D"/>
<path d="M265.48 4.84H266.83V8.7H267.26V4.84H268.6V4.45H265.48V4.84Z" fill="#F15A5D"/>
<path d="M272.8 4.45L271.37 6.52L269.95 4.45H269.32V8.7H269.75V4.92L271.2 6.98H271.53L273.01 4.92V8.7H273.43V4.45H272.8Z" fill="#F15A5D"/>
<path d="M243.94 12.17C236 12.17 230.99 17.34 230.99 25.9C230.99 34.46 236 39.63 243.94 39.63C251.88 39.63 256.94 34.41 256.94 25.9C256.94 17.39 251.93 12.17 243.94 12.17ZM243.99 35.77C239.4 35.77 236.16 31.85 236.16 25.85C236.16 19.85 239.4 15.88 243.99 15.88C248.58 15.88 251.82 19.69 251.82 25.85C251.82 32.01 248.63 35.77 243.99 35.77Z" fill="#F15A5D"/>
<path d="M210.56 16.5C208.46 13.46 205.76 12.22 201.84 12.22C195.52 12.22 191.08 17.34 191.08 25.48C191.08 33.62 196.69 39.65 203.9 39.65C213.23 39.65 215.41 32.09 215.41 32.09V0H210.55V16.5H210.56ZM210.46 28.85C210.46 31.43 208.01 35.52 203.2 35.52C199.02 35.52 196.2 31.97 196.2 25.91C196.2 19.85 199.02 15.94 203.04 15.94C207.06 15.94 209.71 18.62 210.39 23.34C210.5 24.1 210.45 28 210.45 28.86L210.46 28.85Z" fill="#F15A5D"/>
<path d="M182.42 24.06H182.4V26.71C182.4 26.87 182.39 27.02 182.38 27.18H182.4V33.82C182.17 33.78 179.9 35.28 175.65 35.28C171.82 35.13 169.58 32.4 169.58 27.22V12.49H164.72V28.31C164.72 35.12 169.33 38.85 174.73 39.28C174.99 39.36 175.27 39.4 175.57 39.4C183.2 39.4 187.18 37.46 187.18 37.46L187.25 27.18H187.27V12.49H182.41V24.07L182.42 24.06Z" fill="#F15A5D"/>
<path d="M225.73 28.11C225.73 27.73 225.67 12.41 225.67 12.41H220.76L220.81 29.25C221 32.71 222.16 34.75 222.97 36.01C224.05 37.67 225.73 39.43 225.79 39.5L229.22 36.06C229.22 36.06 227.83 34.59 227.04 33.37C226.47 32.49 225.72 31 225.72 28.11H225.73Z" fill="#F15A5D"/>
<path d="M138.3 23.12C136.18 22.13 134.78 21.31 134.11 20.67C133.44 20.03 133.1 19.29 133.1 18.48C133.1 17.56 133.51 16.82 134.33 16.26C135.15 15.7 136.24 15.42 137.59 15.42C138.76 15.42 139.91 15.55 141.05 15.81C142.19 16.07 143.3 16.45 144.38 16.96L144.59 12.91C143.46 12.56 142.33 12.31 141.21 12.14C140.09 11.98 138.99 11.89 137.91 11.89C134.95 11.89 132.58 12.54 130.81 13.84C129.03 15.14 128.15 16.84 128.15 18.95C128.15 20.55 128.67 21.95 129.72 23.13C130.76 24.32 132.7 25.6 135.52 26.97C137.63 28 138.97 28.83 139.54 29.48C140.11 30.12 140.4 30.89 140.4 31.78C140.4 32.98 139.92 33.94 138.95 34.64C137.98 35.35 136.68 35.7 135.05 35.7C133.94 35.7 132.77 35.55 131.56 35.24C130.35 34.93 129.14 34.48 127.92 33.87L127.76 38.05C128.87 38.49 130.03 38.82 131.22 39.04C132.41 39.27 133.62 39.38 134.84 39.38C138.18 39.38 140.83 38.66 142.79 37.22C144.75 35.78 145.73 33.85 145.73 31.41C145.73 29.67 145.2 28.18 144.14 26.94C143.08 25.7 141.14 24.43 138.32 23.13L138.3 23.12Z" fill="#F15A5D"/>
<path d="M270.12 23.12C268 22.13 266.6 21.31 265.93 20.67C265.26 20.03 264.92 19.29 264.92 18.48C264.92 17.56 265.33 16.82 266.15 16.26C266.97 15.7 268.06 15.42 269.42 15.42C270.59 15.42 271.74 15.55 272.88 15.81C274.02 16.07 275.13 16.45 276.21 16.96L276.42 12.91C275.29 12.56 274.16 12.31 273.04 12.14C271.92 11.98 270.81 11.89 269.74 11.89C266.78 11.89 264.41 12.54 262.63 13.84C260.85 15.14 259.97 16.84 259.97 18.95C259.97 20.55 260.49 21.95 261.54 23.13C262.59 24.32 264.52 25.6 267.34 26.97C269.45 28 270.79 28.83 271.36 29.48C271.93 30.12 272.22 30.89 272.22 31.78C272.22 32.98 271.74 33.94 270.77 34.64C269.8 35.35 268.5 35.7 266.87 35.7C265.76 35.7 264.59 35.55 263.38 35.24C262.17 34.93 260.96 34.48 259.74 33.87L259.58 38.05C260.69 38.49 261.85 38.82 263.04 39.04C264.23 39.27 265.44 39.38 266.66 39.38C270 39.38 272.65 38.66 274.61 37.22C276.57 35.78 277.55 33.85 277.55 31.41C277.55 29.67 277.02 28.18 275.96 26.94C274.9 25.7 272.96 24.43 270.13 23.13L270.12 23.12Z" fill="#F15A5D"/>
<path d="M156.36 4.25L151.45 5.43L151.47 12.41H148.7V16.1H151.48L151.51 29.25C151.7 32.71 152.86 34.75 153.67 36.01C154.75 37.67 156.43 39.43 156.49 39.5L159.92 36.06C159.92 36.06 158.53 34.59 157.74 33.37C157.17 32.49 156.42 31 156.42 28.11C156.42 27.92 156.4 22 156.39 16.1H160.54L161.58 12.41H156.37C156.36 7.94 156.35 4.25 156.35 4.25H156.36Z" fill="#F15A5D"/>
<path d="M225.67 0H220.78V4.89H225.67V0Z" fill="#F15A5D"/>
</g>
<defs>
<clipPath id="clip0_17_4127">
<rect width="277.55" height="39.65" fill="white"/>
</clipPath>
</defs>
</svg>
