<svg width="204" height="204" viewBox="0 0 204 204" fill="none" xmlns="http://www.w3.org/2000/svg">
<g clip-path="url(#clip0_16_4005)">
<path d="M203.31 0.649994H0V203.96H203.31V0.649994Z" fill="#F15A5D"/>
<path d="M61.97 112.31C55.57 112.31 51.52 116.48 51.52 123.39C51.52 130.3 55.57 134.47 61.97 134.47C68.37 134.47 72.46 130.26 72.46 123.39C72.46 116.52 68.41 112.31 61.97 112.31ZM62.01 131.36C58.3 131.36 55.69 128.2 55.69 123.35C55.69 118.5 58.3 115.3 62.01 115.3C65.72 115.3 68.33 118.38 68.33 123.35C68.33 128.32 65.76 131.36 62.01 131.36Z" fill="#E6E7E8"/>
<path d="M86.87 112.35C83.71 112.35 81.53 113.35 79.83 115.8V102.49H75.91V128.39C75.91 128.39 77.67 134.49 85.2 134.49C91.02 134.49 95.54 129.88 95.54 123.06C95.54 116.24 91.96 112.36 86.86 112.36L86.87 112.35ZM85.77 131.14C81.89 131.14 79.91 127.84 79.91 125.76C79.91 125.07 79.87 121.92 79.96 121.31C80.51 117.5 82.73 115.34 85.89 115.34C89.05 115.34 91.41 118.29 91.41 123.39C91.41 128.49 89.13 131.14 85.76 131.14H85.77Z" fill="#E6E7E8"/>
<path d="M126.36 122.72C126.36 116.19 122.95 112.31 117.47 112.31C111.65 112.31 107.61 116.61 107.61 123.18C107.61 130.22 111.61 134.47 117.98 134.47C120.47 134.47 122.7 134.13 124.68 133.29V129.92C122.74 130.93 120.85 131.48 118.82 131.48C114.4 131.48 111.7 128.83 111.4 124.32H126.36V122.72ZM111.48 121.71C111.9 117.54 114.18 115.14 117.25 115.14C120.32 115.14 122.39 117.46 122.69 121.71H111.48Z" fill="#E6E7E8"/>
<path d="M39.88 112.35C39.67 112.29 39.44 112.25 39.2 112.25C33.04 112.25 29.83 113.81 29.83 113.81L29.77 122.11H29.75V133.97H33.67V124.63H33.69V122.49C33.69 122.36 33.7 122.24 33.71 122.11H33.69V116.75C33.87 116.78 35.71 115.58 39.14 115.58C42.23 115.7 44.04 117.9 44.04 122.09V133.97H47.96V121.2C47.96 115.7 44.24 112.7 39.88 112.35Z" fill="#E6E7E8"/>
<path d="M102.93 125.17C102.93 124.87 102.88 102.49 102.88 102.49H98.92L98.96 126.09C99.12 128.88 100.05 130.53 100.7 131.54C101.57 132.88 102.93 134.3 102.98 134.36L105.75 131.59C105.75 131.59 104.63 130.4 103.99 129.42C103.53 128.71 102.93 127.5 102.93 125.18V125.17Z" fill="#E6E7E8"/>
<path d="M144.23 142.53H145.32V145.65H145.66V142.53H146.75V142.21H144.23V142.53Z" fill="#E6E7E8"/>
<path d="M150.14 142.21L148.98 143.88L147.83 142.21H147.33V145.65H147.67V142.59L148.84 144.25H149.11L150.3 142.59V145.65H150.64V142.21H150.14Z" fill="#E6E7E8"/>
<path d="M123.52 152.03C117.12 152.03 113.07 156.2 113.07 163.11C113.07 170.02 117.12 174.19 123.52 174.19C129.92 174.19 134.01 169.98 134.01 163.11C134.01 156.24 129.96 152.03 123.52 152.03ZM123.56 171.08C119.85 171.08 117.24 167.92 117.24 163.07C117.24 158.22 119.85 155.02 123.56 155.02C127.27 155.02 129.88 158.1 129.88 163.07C129.88 168.04 127.31 171.08 123.56 171.08Z" fill="#E6E7E8"/>
<path d="M96.59 155.52C94.89 153.07 92.71 152.07 89.55 152.07C84.45 152.07 80.87 156.2 80.87 162.77C80.87 169.34 85.4 174.2 91.21 174.2C98.74 174.2 100.5 168.1 100.5 168.1V142.2H96.58V155.51L96.59 155.52ZM96.51 165.48C96.51 167.56 94.53 170.86 90.65 170.86C87.28 170.86 85 167.99 85 163.11C85 158.23 87.28 155.06 90.52 155.06C93.76 155.06 95.9 157.22 96.45 161.03C96.54 161.64 96.5 164.79 96.5 165.48H96.51Z" fill="#E6E7E8"/>
<path d="M73.88 161.62H73.86V163.76C73.86 163.89 73.85 164.01 73.84 164.14H73.86V169.5C73.68 169.47 71.84 170.67 68.41 170.67C65.32 170.55 63.51 168.35 63.51 164.16V152.28H59.59V165.05C59.59 170.55 63.31 173.55 67.67 173.9C67.88 173.96 68.11 174 68.35 174C74.51 174 77.72 172.44 77.72 172.44L77.78 164.14H77.8V152.28H73.88V161.62Z" fill="#E6E7E8"/>
<path d="M108.83 164.89C108.83 164.59 108.78 152.22 108.78 152.22H104.82L104.86 165.81C105.02 168.6 105.95 170.25 106.6 171.26C107.47 172.6 108.83 174.02 108.88 174.08L111.65 171.31C111.65 171.31 110.53 170.12 109.89 169.14C109.43 168.43 108.83 167.22 108.83 164.9V164.89Z" fill="#E6E7E8"/>
<path d="M38.27 160.87C36.56 160.07 35.43 159.41 34.89 158.89C34.35 158.37 34.08 157.78 34.08 157.12C34.08 156.38 34.41 155.78 35.07 155.33C35.73 154.88 36.61 154.66 37.7 154.66C38.64 154.66 39.57 154.77 40.49 154.98C41.41 155.19 42.31 155.5 43.18 155.91L43.35 152.64C42.44 152.36 41.53 152.15 40.62 152.02C39.71 151.89 38.82 151.82 37.95 151.82C35.56 151.82 33.65 152.34 32.22 153.39C30.79 154.44 30.07 155.81 30.07 157.51C30.07 158.8 30.49 159.93 31.33 160.88C32.17 161.84 33.73 162.87 36.01 163.98C37.71 164.81 38.79 165.48 39.26 166C39.72 166.52 39.96 167.14 39.96 167.85C39.96 168.82 39.57 169.59 38.79 170.16C38.01 170.73 36.96 171.01 35.64 171.01C34.74 171.01 33.8 170.89 32.83 170.64C31.85 170.39 30.87 170.02 29.89 169.53L29.76 172.9C30.66 173.25 31.59 173.52 32.55 173.7C33.51 173.88 34.49 173.97 35.47 173.97C38.17 173.97 40.31 173.39 41.89 172.23C43.47 171.07 44.26 169.51 44.26 167.54C44.26 166.14 43.83 164.93 42.97 163.94C42.11 162.94 40.55 161.92 38.27 160.86V160.87Z" fill="#E6E7E8"/>
<path d="M144.66 160.87C142.95 160.07 141.82 159.41 141.28 158.89C140.74 158.37 140.47 157.78 140.47 157.12C140.47 156.38 140.8 155.78 141.46 155.33C142.12 154.88 143 154.66 144.1 154.66C145.04 154.66 145.97 154.77 146.89 154.98C147.81 155.19 148.71 155.5 149.58 155.91L149.75 152.64C148.84 152.36 147.93 152.15 147.02 152.02C146.11 151.89 145.22 151.82 144.35 151.82C141.96 151.82 140.05 152.34 138.62 153.39C137.19 154.44 136.47 155.81 136.47 157.51C136.47 158.8 136.89 159.93 137.73 160.88C138.57 161.84 140.13 162.87 142.41 163.98C144.11 164.81 145.19 165.48 145.66 166C146.12 166.52 146.36 167.14 146.36 167.85C146.36 168.82 145.97 169.59 145.19 170.16C144.41 170.73 143.36 171.01 142.04 171.01C141.14 171.01 140.2 170.89 139.23 170.64C138.25 170.39 137.27 170.02 136.29 169.53L136.16 172.9C137.06 173.25 137.99 173.52 138.95 173.7C139.91 173.88 140.89 173.97 141.87 173.97C144.57 173.97 146.71 173.39 148.29 172.23C149.87 171.07 150.66 169.51 150.66 167.54C150.66 166.14 150.23 164.93 149.37 163.94C148.51 162.94 146.94 161.92 144.67 160.86L144.66 160.87Z" fill="#E6E7E8"/>
<path d="M52.85 145.64L48.89 146.59V152.22H46.66V155.2H48.91L48.93 165.81C49.09 168.6 50.02 170.25 50.67 171.26C51.54 172.6 52.9 174.02 52.95 174.08L55.72 171.31C55.72 171.31 54.6 170.12 53.96 169.14C53.5 168.43 52.9 167.22 52.9 164.9C52.9 164.75 52.89 159.97 52.87 155.21H56.22L57.06 152.23H52.86C52.86 148.62 52.84 145.65 52.84 145.65L52.85 145.64Z" fill="#E6E7E8"/>
<path d="M108.79 142.21H104.84V146.16H108.79V142.21Z" fill="#E6E7E8"/>
</g>
<defs>
<clipPath id="clip0_16_4005">
<rect width="203.31" height="203.31" fill="white" transform="translate(0 0.649994)"/>
</clipPath>
</defs>
</svg>
