<svg width="204" height="205" viewBox="0 0 204 205" fill="none" xmlns="http://www.w3.org/2000/svg">
<g clip-path="url(#clip0_16_4066)">
<path d="M117.25 115.44C114.17 115.44 111.9 117.84 111.48 122.01H122.69C122.4 117.75 120.41 115.44 117.25 115.44Z" fill="#F15A5D"/>
<path d="M90.52 155.37C87.27 155.37 85 158.32 85 163.42C85 168.52 87.28 171.17 90.65 171.17C94.53 171.17 96.51 167.87 96.51 165.79C96.51 165.1 96.55 161.95 96.46 161.34C95.91 157.53 93.69 155.37 90.53 155.37H90.52Z" fill="#F15A5D"/>
<path d="M123.57 155.33C119.86 155.33 117.25 158.49 117.25 163.38C117.25 168.27 119.86 171.39 123.57 171.39C127.28 171.39 129.89 168.31 129.89 163.38C129.89 158.45 127.32 155.33 123.57 155.33Z" fill="#F15A5D"/>
<path d="M62.0099 131.67C65.7599 131.67 68.3299 128.59 68.3299 123.66C68.3299 118.73 65.7599 115.61 62.0099 115.61C58.2599 115.61 55.6899 118.77 55.6899 123.66C55.6899 128.55 58.2999 131.67 62.0099 131.67Z" fill="#F15A5D"/>
<path d="M91.42 123.7C91.42 118.6 89.14 115.65 85.9 115.65C82.66 115.65 80.52 117.81 79.97 121.62C79.88 122.23 79.92 125.38 79.92 126.07C79.92 128.15 81.9 131.45 85.78 131.45C89.15 131.45 91.43 128.58 91.43 123.7H91.42Z" fill="#F15A5D"/>
<path d="M0 0.959991V204.27H203.31V0.959991H0ZM144.23 142.52H146.75V142.83H145.66V145.95H145.32V142.83H144.23V142.52ZM117.47 112.62C122.95 112.62 126.36 116.5 126.36 123.03V124.63H111.4C111.7 129.14 114.39 131.79 118.82 131.79C120.84 131.79 122.74 131.24 124.68 130.23V133.6C122.7 134.44 120.47 134.78 117.98 134.78C111.62 134.78 107.61 130.52 107.61 123.49C107.61 116.92 111.66 112.62 117.47 112.62ZM108.79 142.52V146.47H104.84V142.52H108.79ZM61.97 112.62C68.42 112.62 72.46 116.79 72.46 123.7C72.46 130.61 68.37 134.78 61.97 134.78C55.57 134.78 51.52 130.57 51.52 123.7C51.52 116.83 55.57 112.62 61.97 112.62ZM29.76 122.42H29.78L29.84 114.12C29.84 114.12 33.06 112.56 39.21 112.56C39.45 112.56 39.68 112.6 39.89 112.66C44.25 113.01 47.97 116.02 47.97 121.51V134.28H44.05V122.4C44.05 118.21 42.24 116.01 39.15 115.9C35.72 115.89 33.88 117.09 33.7 117.06V122.42H33.72C33.72 122.54 33.71 122.67 33.7 122.8V124.95H33.68V134.28H29.76V122.42ZM41.89 172.55C40.31 173.71 38.17 174.29 35.47 174.29C34.49 174.29 33.51 174.2 32.55 174.02C31.59 173.84 30.66 173.57 29.76 173.22L29.89 169.85C30.87 170.34 31.85 170.71 32.83 170.96C33.81 171.21 34.74 171.33 35.64 171.33C36.96 171.33 38.01 171.05 38.79 170.48C39.57 169.91 39.96 169.14 39.96 168.17C39.96 167.45 39.73 166.83 39.26 166.32C38.8 165.8 37.71 165.13 36.01 164.3C33.73 163.19 32.17 162.16 31.33 161.2C30.49 160.24 30.07 159.12 30.07 157.83C30.07 156.13 30.79 154.76 32.22 153.71C33.65 152.66 35.56 152.14 37.95 152.14C38.82 152.14 39.71 152.21 40.62 152.34C41.53 152.47 42.44 152.68 43.35 152.96L43.18 156.23C42.31 155.82 41.41 155.51 40.49 155.3C39.57 155.09 38.64 154.98 37.7 154.98C36.6 154.98 35.73 155.21 35.06 155.65C34.4 156.1 34.07 156.7 34.07 157.44C34.07 158.1 34.34 158.69 34.88 159.21C35.42 159.73 36.55 160.39 38.26 161.19C40.54 162.24 42.1 163.27 42.96 164.27C43.82 165.27 44.25 166.47 44.25 167.87C44.25 169.84 43.46 171.4 41.88 172.56L41.89 172.55ZM56.23 155.51H52.88C52.89 160.27 52.91 165.05 52.91 165.2C52.91 167.53 53.52 168.74 53.97 169.44C54.6 170.42 55.72 171.6 55.73 171.61L52.96 174.38C52.91 174.33 51.55 172.91 50.68 171.56C50.02 170.54 49.09 168.9 48.94 166.11L48.92 155.5H46.67V152.52H48.91V146.89L52.86 145.94C52.86 145.94 52.86 148.91 52.88 152.52H57.08L56.24 155.5L56.23 155.51ZM77.8 164.45H77.78L77.72 172.75C77.72 172.75 74.5 174.31 68.35 174.31C68.11 174.31 67.88 174.27 67.67 174.21C63.31 173.86 59.59 170.85 59.59 165.36V152.59H63.51V164.47C63.51 168.66 65.32 170.86 68.41 170.97V170.98C71.84 170.98 73.68 169.78 73.86 169.81V164.45H73.84C73.84 164.33 73.85 164.2 73.86 164.07V161.92H73.88V152.59H77.8V164.45ZM75.92 128.7V102.8H79.84V116.11C81.54 113.66 83.72 112.66 86.88 112.66C91.98 112.66 95.56 116.79 95.56 123.36C95.56 129.93 91.03 134.79 85.22 134.79C77.69 134.79 75.93 128.69 75.93 128.69L75.92 128.7ZM100.51 168.42C100.51 168.42 98.75 174.52 91.22 174.52C85.4 174.52 80.88 169.91 80.88 163.09C80.88 156.27 84.46 152.39 89.56 152.39C92.72 152.39 94.9 153.39 96.6 155.84V142.53H100.52V168.43L100.51 168.42ZM100.71 131.86C100.05 130.84 99.12 129.2 98.97 126.41L98.93 102.81H102.89C102.89 102.81 102.94 125.19 102.94 125.49C102.94 127.82 103.55 129.03 104 129.73C104.63 130.71 105.75 131.89 105.76 131.9L102.99 134.67C102.94 134.62 101.58 133.2 100.71 131.85V131.86ZM108.88 174.39C108.83 174.34 107.47 172.92 106.6 171.57C105.94 170.55 105.01 168.91 104.86 166.12L104.82 152.53H108.78C108.78 152.53 108.83 164.9 108.83 165.2C108.83 167.53 109.44 168.74 109.89 169.44C110.52 170.42 111.64 171.6 111.65 171.61L108.88 174.38V174.39ZM123.52 174.5C117.12 174.5 113.07 170.29 113.07 163.42C113.07 156.55 117.12 152.34 123.52 152.34C129.92 152.34 134.01 156.51 134.01 163.42C134.01 170.33 129.92 174.5 123.52 174.5ZM148.27 172.55C146.69 173.71 144.55 174.29 141.85 174.29C140.87 174.29 139.89 174.2 138.93 174.02C137.97 173.84 137.04 173.57 136.14 173.22L136.27 169.85C137.25 170.34 138.23 170.71 139.21 170.96C140.19 171.21 141.13 171.33 142.02 171.33C143.34 171.33 144.39 171.05 145.17 170.48C145.95 169.91 146.34 169.14 146.34 168.17C146.34 167.45 146.11 166.83 145.64 166.32C145.18 165.8 144.09 165.13 142.39 164.3C140.11 163.19 138.55 162.16 137.71 161.2C136.87 160.24 136.45 159.12 136.45 157.83C136.45 156.13 137.17 154.76 138.6 153.71C140.03 152.66 141.94 152.14 144.33 152.14C145.2 152.14 146.09 152.21 147 152.34C147.91 152.47 148.82 152.68 149.73 152.96L149.56 156.23C148.69 155.82 147.79 155.51 146.87 155.3C145.95 155.09 145.02 154.98 144.08 154.98C142.98 154.98 142.11 155.21 141.44 155.65C140.78 156.1 140.45 156.7 140.45 157.44C140.45 158.1 140.72 158.69 141.26 159.21C141.8 159.73 142.93 160.39 144.64 161.19C146.92 162.24 148.48 163.27 149.34 164.27C150.2 165.27 150.63 166.47 150.63 167.87C150.63 169.84 149.84 171.4 148.26 172.56L148.27 172.55ZM150.64 145.96H150.3V142.9L149.11 144.56H148.85L147.68 142.9V145.96H147.34V142.53H147.85L149 144.2L150.16 142.53H150.67V145.96H150.64Z" fill="#F15A5D"/>
</g>
<defs>
<clipPath id="clip0_16_4066">
<rect width="203.31" height="203.31" fill="white" transform="translate(0 0.959991)"/>
</clipPath>
</defs>
</svg>
