<?xml version="1.0" encoding="UTF-8"?> <svg xmlns="http://www.w3.org/2000/svg" width="225" height="133" viewBox="0 0 225 133" fill="none"><g clip-path="url(#clip0_16_3981)"><path d="M59.9 18.26C47.99 18.26 40.47 26.02 40.47 38.87C40.47 51.72 47.99 59.48 59.9 59.48C71.81 59.48 79.41 51.64 79.41 38.87C79.41 26.1 71.89 18.26 59.9 18.26ZM59.98 53.68C53.08 53.68 48.23 47.8 48.23 38.79C48.23 29.78 53.09 23.82 59.98 23.82C66.87 23.82 71.73 29.54 71.73 38.79C71.73 48.04 66.95 53.68 59.98 53.68Z" fill="#F15A5D"></path><path d="M106.21 18.34C100.33 18.34 96.28 20.2 93.12 24.76V0H85.83V48.16C85.83 48.16 89.1 59.5 103.11 59.5C113.93 59.5 122.35 50.94 122.35 38.24C122.35 25.54 115.69 18.34 106.21 18.34ZM104.17 53.29C96.96 53.29 93.27 47.16 93.27 43.28C93.27 41.99 93.2 36.13 93.37 35C94.4 27.92 98.53 23.9 104.41 23.9C110.29 23.9 114.68 29.39 114.68 38.87C114.68 48.35 110.45 53.29 104.18 53.29H104.17Z" fill="#F15A5D"></path><path d="M179.64 37.61C179.64 25.46 173.29 18.26 163.1 18.26C152.29 18.26 144.76 26.25 144.76 38.48C144.76 51.57 152.2 59.48 164.04 59.48C168.66 59.48 172.82 58.85 176.5 57.29V51.02C172.9 52.9 169.37 53.92 165.61 53.92C157.38 53.92 152.37 48.98 151.82 40.6H179.64V37.62V37.61ZM151.98 35.73C152.76 27.97 157 23.51 162.72 23.51C168.44 23.51 172.28 27.82 172.83 35.73H151.99H151.98Z" fill="#F15A5D"></path><path d="M18.84 18.33C18.45 18.22 18.03 18.15 17.57 18.15C6.12 18.15 0.14 21.05 0.14 21.05L0.03 36.48H0V58.53H7.29V41.16L7.32 41.18V37.18C7.33 36.95 7.34 36.71 7.36 36.48H7.32V26.51C7.66 26.57 11.08 24.33 17.46 24.33V24.35C23.21 24.56 26.57 28.65 26.57 36.43V58.53H33.86V34.79C33.86 24.57 26.95 18.98 18.84 18.33Z" fill="#F15A5D"></path><path d="M136.08 42.18C136.08 41.62 135.98 0 135.98 0H128.61L128.69 43.89C128.98 49.09 130.71 52.14 131.93 54.03C133.55 56.53 136.07 59.17 136.17 59.27L141.32 54.12C141.32 54.12 139.23 51.91 138.05 50.08C137.2 48.77 136.07 46.52 136.07 42.19L136.08 42.18Z" fill="#F15A5D"></path><path d="M212.9 74.1H214.92V79.9H215.56V74.1H217.58V73.52H212.9V74.1Z" fill="#F15A5D"></path><path d="M223.88 73.52L221.73 76.62L219.6 73.52H218.66V79.9H219.3V74.22L221.48 77.31H221.97L224.18 74.22V79.9H224.82V73.52H223.88Z" fill="#F15A5D"></path><path d="M174.39 91.77C162.48 91.77 154.96 99.53 154.96 112.38C154.96 125.23 162.48 132.99 174.39 132.99C186.3 132.99 193.9 125.15 193.9 112.38C193.9 99.61 186.38 91.77 174.39 91.77ZM174.47 127.19C167.57 127.19 162.72 121.31 162.72 112.3C162.72 103.29 167.58 97.33 174.47 97.33C181.36 97.33 186.22 103.05 186.22 112.3C186.22 121.55 181.44 127.19 174.47 127.19Z" fill="#F15A5D"></path><path d="M124.3 98.26C121.15 93.7 117.09 91.84 111.21 91.84C101.73 91.84 95.07 99.52 95.07 111.74C95.07 123.96 103.49 133 114.31 133C128.32 133 131.59 121.66 131.59 121.66V73.5H124.3V98.26ZM124.15 116.79C124.15 120.66 120.47 126.8 113.25 126.8C106.98 126.8 102.75 121.47 102.75 112.38C102.75 103.29 106.98 97.41 113.02 97.41C119.06 97.41 123.03 101.43 124.06 108.51C124.22 109.64 124.16 115.51 124.16 116.79H124.15Z" fill="#F15A5D"></path><path d="M82.07 109.61L82.04 109.59V113.59C82.03 113.82 82.02 114.06 82 114.29H82.04V124.26C81.7 124.2 78.28 126.44 71.9 126.44V126.42C66.15 126.21 62.79 122.12 62.79 114.34V92.24H55.5V115.98C55.5 126.2 62.41 131.79 70.52 132.44C70.91 132.55 71.33 132.62 71.79 132.62C83.24 132.62 89.22 129.71 89.22 129.71L89.33 114.28H89.36V92.23H82.07V109.6V109.61Z" fill="#F15A5D"></path><path d="M147.07 115.69C147.07 115.13 146.97 92.13 146.97 92.13H139.6L139.68 117.4C139.97 122.6 141.7 125.65 142.92 127.54C144.54 130.04 147.06 132.68 147.16 132.78L152.31 127.63C152.31 127.63 150.22 125.42 149.04 123.59C148.19 122.28 147.06 120.03 147.06 115.7L147.07 115.69Z" fill="#F15A5D"></path><path d="M15.86 108.2C12.67 106.71 10.57 105.48 9.57 104.52C8.56 103.55 8.06 102.46 8.06 101.23C8.06 99.85 8.67 98.74 9.9 97.9C11.13 97.06 12.76 96.65 14.8 96.65C16.55 96.65 18.28 96.85 19.99 97.24C21.7 97.63 23.37 98.21 24.99 98.96L25.3 92.88C23.6 92.36 21.91 91.97 20.22 91.72C18.53 91.47 16.88 91.35 15.26 91.35C10.82 91.35 7.26 92.32 4.6 94.27C1.94 96.22 0.6 98.77 0.6 101.93C0.6 104.33 1.38 106.42 2.95 108.2C4.52 109.98 7.42 111.9 11.65 113.96C14.81 115.5 16.82 116.75 17.69 117.72C18.55 118.69 18.98 119.84 18.98 121.17C18.98 122.97 18.25 124.4 16.8 125.46C15.35 126.52 13.4 127.05 10.94 127.05C9.27 127.05 7.52 126.82 5.71 126.37C3.89 125.91 2.07 125.23 0.24 124.31L0 130.58C1.67 131.23 3.4 131.73 5.19 132.07C6.98 132.41 8.79 132.58 10.62 132.58C15.64 132.58 19.62 131.5 22.56 129.35C25.5 127.19 26.97 124.29 26.97 120.63C26.97 118.02 26.17 115.78 24.58 113.93C22.99 112.07 20.07 110.17 15.84 108.21L15.86 108.2Z" fill="#F15A5D"></path><path d="M213.69 108.2C210.5 106.71 208.41 105.48 207.4 104.52C206.4 103.55 205.89 102.46 205.89 101.23C205.89 99.85 206.5 98.74 207.73 97.9C208.96 97.06 210.59 96.65 212.63 96.65C214.38 96.65 216.11 96.85 217.82 97.24C219.53 97.63 221.2 98.21 222.82 98.96L223.13 92.88C221.43 92.36 219.74 91.97 218.05 91.72C216.36 91.47 214.71 91.35 213.09 91.35C208.65 91.35 205.09 92.32 202.43 94.27C199.76 96.22 198.43 98.77 198.43 101.93C198.43 104.33 199.21 106.42 200.78 108.2C202.35 109.98 205.25 111.9 209.48 113.96C212.64 115.5 214.65 116.75 215.52 117.72C216.38 118.69 216.81 119.84 216.81 121.17C216.81 122.97 216.09 124.4 214.64 125.46C213.19 126.52 211.23 127.05 208.78 127.05C207.11 127.05 205.36 126.82 203.55 126.37C201.73 125.91 199.91 125.23 198.08 124.31L197.85 130.58C199.52 131.23 201.25 131.73 203.04 132.07C204.83 132.41 206.64 132.58 208.47 132.58C213.49 132.58 217.47 131.5 220.4 129.35C223.34 127.19 224.81 124.29 224.81 120.63C224.81 118.02 224.01 115.78 222.42 113.93C220.83 112.07 217.91 110.17 213.68 108.21L213.69 108.2Z" fill="#F15A5D"></path><path d="M42.97 79.88L35.6 81.65L35.62 92.12H31.46V97.66H35.64L35.68 117.39C35.97 122.59 37.7 125.64 38.92 127.53C40.54 130.03 43.06 132.67 43.16 132.77L48.31 127.62C48.31 127.62 46.22 125.41 45.04 123.58C44.19 122.27 43.06 120.02 43.06 115.69C43.06 115.41 43.04 106.52 43.01 97.67H49.24L50.8 92.13H42.99C42.97 85.42 42.96 79.89 42.96 79.89L42.97 79.88Z" fill="#F15A5D"></path><path d="M146.98 73.52H139.64V80.86H146.98V73.52Z" fill="#F15A5D"></path></g><defs><clipPath id="clip0_16_3981"><rect width="224.82" height="133" fill="white"></rect></clipPath></defs></svg> 