<svg width="16" height="16" viewBox="0 0 16 16" fill="none" xmlns="http://www.w3.org/2000/svg">
<path d="M14.8372 13.2843C14.8372 13.2843 13.9228 14.1725 13.6987 14.4329C13.3336 14.8181 12.9035 15 12.3397 15C12.2855 15 12.2277 15 12.1734 14.9964C11.1 14.9287 10.1024 14.5149 9.35424 14.1618C7.30852 13.1845 5.51219 11.7969 4.01946 10.0385C2.78697 8.57248 1.9629 7.21707 1.41713 5.76178C1.08099 4.87363 0.958105 4.18166 1.01232 3.52892C1.04846 3.11159 1.21111 2.76561 1.5111 2.46955L2.74359 1.25325C2.9207 1.08917 3.10864 1 3.29298 1C3.52068 1 3.70501 1.13554 3.82067 1.24968C3.82429 1.25325 3.8279 1.25682 3.83151 1.26038C4.05199 1.46369 4.26162 1.67414 4.4821 1.89885C4.59414 2.01299 4.7098 2.12713 4.82546 2.24484L5.81218 3.2186C6.1953 3.59669 6.1953 3.94624 5.81218 4.32433C5.70736 4.42777 5.60616 4.53121 5.50134 4.63108C5.19774 4.93783 5.43624 4.70247 5.12179 4.98068C5.11456 4.98782 5.10733 4.99138 5.10372 4.99852C4.79288 5.30527 4.85071 5.60489 4.91577 5.8082C4.91939 5.8189 4.923 5.8296 4.92662 5.8403C5.18323 6.4538 5.54467 7.03164 6.09405 7.72004L6.09767 7.72361C7.09523 8.93635 8.147 9.88157 9.30721 10.6056C9.4554 10.6984 9.6072 10.7733 9.75177 10.8446C9.88189 10.9088 10.0048 10.9695 10.1096 11.0337C10.1241 11.0408 10.1385 11.0515 10.153 11.0586C10.2759 11.1193 10.3915 11.1478 10.5108 11.1478C10.8108 11.1478 10.9987 10.9623 11.0602 10.9017L11.7686 10.2025C11.8915 10.0813 12.0867 9.93503 12.3144 9.93503C12.5385 9.93503 12.7228 10.0741 12.8349 10.1954C12.8385 10.199 12.8385 10.199 12.8421 10.2025L14.8336 12.1679C15.2059 12.5317 14.8372 13.2843 14.8372 13.2843Z" stroke="#000000" stroke-width="2" stroke-linecap="round" stroke-linejoin="round"/>
</svg>
