<svg width="24" height="25" viewBox="0 0 24 25" fill="none" xmlns="http://www.w3.org/2000/svg">
<path d="M14.3997 15.1363V9.22995M5.01196 3.73633H12.0012C12.0409 5.15139 13.2005 6.28633 14.6252 6.28633C16.0499 6.28633 17.2094 5.15139 17.2491 3.73633H18.9884C21.0936 3.73633 22.8002 5.44291 22.8002 7.54809V17.005C22.8002 19.1102 21.0936 20.8168 18.9884 20.8168H17.2491C17.2094 19.4017 16.0499 18.2668 14.6252 18.2668C13.2005 18.2668 12.0409 19.4017 12.0012 20.8168H5.01197C2.90679 20.8168 1.20021 19.1102 1.20021 17.005L1.2002 7.54809C1.2002 5.44291 2.90678 3.73633 5.01196 3.73633Z" stroke="#3170B7" stroke-width="2" stroke-linecap="round" stroke-linejoin="round"/>
</svg>
