<?xml version="1.0" encoding="utf-8"?>
<!-- Generator: Adobe Illustrator 26.2.1, SVG Export Plug-In . SVG Version: 6.00 Build 0)  -->
<svg version="1.1" id="Layer_1" xmlns="http://www.w3.org/2000/svg" xmlns:xlink="http://www.w3.org/1999/xlink" x="0px" y="0px"
	 viewBox="0 0 512 356.4" style="enable-background:new 0 0 512 356.4;" xml:space="preserve">
<style type="text/css">
	.st0{fill:#FF0000;}
	.st1{fill:#FFFFFF;}
</style>
<g>
	<path class="st0" d="M0,200c0-14.7,0-29.3,0-44c0.4-4.9,0.6-9.9,1.1-14.8c2.3-24.9,4.2-49.8,7.2-74.5C11.1,43.8,22.5,26.1,43,14.8
		C53.4,9.1,64.8,7,76.2,6.3c37.6-2.4,75.1-5.4,112.7-5.9c57-0.8,114-0.3,170.9,1.1c28.9,0.7,57.8,3.7,86.6,6.8
		c28.7,3.2,49.7,22.3,55.4,50.6c4,20,5.7,40.5,8,60.8c1.3,11.4,1.5,22.9,2.2,34.3c0,15.3,0,30.7,0,46c-0.3,2.3-0.7,4.6-0.8,6.9
		c-0.9,27.8-2.6,55.6-7.3,83.1c-5.9,34.6-25.5,55.2-60.1,58.9c-33.1,3.6-66.4,6.2-99.6,6.8c-58.6,1.1-117.3,1.1-175.9,0
		c-33.4-0.6-66.8-3.7-100.1-6.9c-31.6-3.1-53.1-23-58.8-54.4c-3.6-19.6-5.1-39.6-7.1-59.5C1,223.3,0.7,211.6,0,200z M205.1,101.4
		c0,51.6,0,102.2,0,153.7c44.6-25.7,88.6-51,133.5-76.9C293.8,152.4,249.8,127.1,205.1,101.4z"/>
	<path class="st1" d="M205.1,101.4c44.6,25.7,88.6,51.1,133.5,76.9c-44.8,25.8-88.9,51.2-133.5,76.9
		C205.1,203.6,205.1,152.9,205.1,101.4z"/>
</g>
</svg>
